<svg width="339" height="168" viewBox="0 0 339 168" fill="none" xmlns="http://www.w3.org/2000/svg">
<rect x="135" width="70" height="70" rx="35" fill="#18A5C6"/>
<path d="M73.8457 124H69.4512V102.672H73.8457V124ZM81.5508 108.15L81.6826 109.981C82.8154 108.565 84.334 107.857 86.2383 107.857C87.918 107.857 89.168 108.351 89.9883 109.337C90.8086 110.323 91.2285 111.798 91.248 113.761V124H87.0146V113.863C87.0146 112.965 86.8193 112.315 86.4287 111.915C86.0381 111.505 85.3887 111.3 84.4805 111.3C83.2891 111.3 82.3955 111.808 81.7998 112.823V124H77.5664V108.15H81.5508ZM99.5391 104.254V108.15H102.249V111.256H99.5391V119.166C99.5391 119.752 99.6514 120.172 99.876 120.426C100.101 120.68 100.53 120.807 101.165 120.807C101.634 120.807 102.049 120.772 102.41 120.704V123.912C101.58 124.166 100.726 124.293 99.8467 124.293C96.8779 124.293 95.3643 122.794 95.3057 119.796V111.256H92.9912V108.15H95.3057V104.254H99.5391ZM111.902 124.293C109.578 124.293 107.684 123.58 106.219 122.154C104.764 120.729 104.036 118.829 104.036 116.456V116.046C104.036 114.454 104.344 113.033 104.959 111.783C105.574 110.523 106.443 109.557 107.566 108.883C108.699 108.199 109.988 107.857 111.434 107.857C113.602 107.857 115.306 108.541 116.546 109.908C117.796 111.275 118.421 113.214 118.421 115.724V117.452H108.328C108.465 118.487 108.875 119.317 109.559 119.942C110.252 120.567 111.126 120.88 112.181 120.88C113.812 120.88 115.086 120.289 116.004 119.107L118.084 121.437C117.449 122.335 116.59 123.038 115.506 123.546C114.422 124.044 113.221 124.293 111.902 124.293ZM111.419 111.285C110.579 111.285 109.896 111.568 109.368 112.135C108.851 112.701 108.519 113.512 108.372 114.566H114.261V114.229C114.241 113.292 113.987 112.569 113.499 112.062C113.011 111.544 112.317 111.285 111.419 111.285ZM129.744 112.12C129.168 112.042 128.66 112.003 128.221 112.003C126.619 112.003 125.569 112.545 125.071 113.629V124H120.838V108.15H124.837L124.954 110.04C125.804 108.585 126.98 107.857 128.484 107.857C128.953 107.857 129.393 107.921 129.803 108.048L129.744 112.12ZM137.991 118.829L140.936 108.15H145.359L140.013 124H135.97L130.623 108.15H135.047L137.991 118.829ZM151.702 124H147.454V108.15H151.702V124ZM147.205 104.049C147.205 103.414 147.415 102.892 147.835 102.481C148.265 102.071 148.846 101.866 149.578 101.866C150.301 101.866 150.877 102.071 151.307 102.481C151.736 102.892 151.951 103.414 151.951 104.049C151.951 104.693 151.731 105.221 151.292 105.631C150.862 106.041 150.291 106.246 149.578 106.246C148.865 106.246 148.289 106.041 147.85 105.631C147.42 105.221 147.205 104.693 147.205 104.049ZM162.498 124.293C160.174 124.293 158.279 123.58 156.814 122.154C155.359 120.729 154.632 118.829 154.632 116.456V116.046C154.632 114.454 154.939 113.033 155.555 111.783C156.17 110.523 157.039 109.557 158.162 108.883C159.295 108.199 160.584 107.857 162.029 107.857C164.197 107.857 165.901 108.541 167.142 109.908C168.392 111.275 169.017 113.214 169.017 115.724V117.452H158.924C159.061 118.487 159.471 119.317 160.154 119.942C160.848 120.567 161.722 120.88 162.776 120.88C164.407 120.88 165.682 120.289 166.6 119.107L168.68 121.437C168.045 122.335 167.186 123.038 166.102 123.546C165.018 124.044 163.816 124.293 162.498 124.293ZM162.015 111.285C161.175 111.285 160.491 111.568 159.964 112.135C159.446 112.701 159.114 113.512 158.968 114.566H164.856V114.229C164.837 113.292 164.583 112.569 164.095 112.062C163.606 111.544 162.913 111.285 162.015 111.285ZM185.218 118.243L187.298 108.15H191.385L187.342 124H183.797L180.794 114.024L177.791 124H174.261L170.218 108.15H174.305L176.37 118.229L179.271 108.15H182.332L185.218 118.243ZM202.078 119.62C202.078 119.103 201.819 118.697 201.302 118.404C200.794 118.102 199.974 117.833 198.841 117.599C195.071 116.808 193.187 115.206 193.187 112.794C193.187 111.388 193.768 110.216 194.93 109.278C196.102 108.331 197.63 107.857 199.515 107.857C201.526 107.857 203.133 108.331 204.334 109.278C205.545 110.226 206.15 111.456 206.15 112.97H201.917C201.917 112.364 201.722 111.866 201.331 111.476C200.94 111.075 200.33 110.875 199.5 110.875C198.787 110.875 198.235 111.036 197.845 111.358C197.454 111.681 197.259 112.091 197.259 112.589C197.259 113.058 197.479 113.438 197.918 113.731C198.367 114.015 199.119 114.264 200.174 114.479C201.229 114.684 202.117 114.918 202.84 115.182C205.076 116.002 206.194 117.423 206.194 119.444C206.194 120.89 205.574 122.062 204.334 122.96C203.094 123.849 201.492 124.293 199.529 124.293C198.201 124.293 197.02 124.059 195.984 123.59C194.959 123.111 194.153 122.462 193.567 121.642C192.981 120.812 192.688 119.918 192.688 118.961H196.702C196.741 119.713 197.02 120.289 197.537 120.689C198.055 121.09 198.748 121.29 199.617 121.29C200.428 121.29 201.038 121.139 201.448 120.836C201.868 120.523 202.078 120.118 202.078 119.62ZM230.188 118.243L232.269 108.15H236.355L232.312 124H228.768L225.765 114.024L222.762 124H219.231L215.188 108.15H219.275L221.341 118.229L224.241 108.15H227.303L230.188 118.243ZM242.933 124H238.685V108.15H242.933V124ZM238.436 104.049C238.436 103.414 238.646 102.892 239.065 102.481C239.495 102.071 240.076 101.866 240.809 101.866C241.531 101.866 242.107 102.071 242.537 102.481C242.967 102.892 243.182 103.414 243.182 104.049C243.182 104.693 242.962 105.221 242.522 105.631C242.093 106.041 241.521 106.246 240.809 106.246C240.096 106.246 239.52 106.041 239.08 105.631C238.65 105.221 238.436 104.693 238.436 104.049ZM251.502 104.254V108.15H254.212V111.256H251.502V119.166C251.502 119.752 251.614 120.172 251.839 120.426C252.063 120.68 252.493 120.807 253.128 120.807C253.597 120.807 254.012 120.772 254.373 120.704V123.912C253.543 124.166 252.688 124.293 251.81 124.293C248.841 124.293 247.327 122.794 247.269 119.796V111.256H244.954V108.15H247.269V104.254H251.502ZM260.701 109.879C261.824 108.531 263.235 107.857 264.935 107.857C268.372 107.857 270.115 109.854 270.164 113.849V124H265.931V113.966C265.931 113.058 265.735 112.389 265.345 111.959C264.954 111.52 264.305 111.3 263.396 111.3C262.156 111.3 261.258 111.778 260.701 112.735V124H256.468V101.5H260.701V109.879Z" fill="black"/>
<path d="M75.2871 151.958C75.2871 149.487 75.8389 147.52 76.9424 146.055C78.0557 144.59 79.5742 143.857 81.498 143.857C83.041 143.857 84.3154 144.434 85.3213 145.586V137.5H89.5693V160H85.7461L85.541 158.315C84.4863 159.634 83.1289 160.293 81.4688 160.293C79.6035 160.293 78.1045 159.561 76.9717 158.096C75.8486 156.621 75.2871 154.575 75.2871 151.958ZM79.5205 152.266C79.5205 153.75 79.7793 154.888 80.2969 155.679C80.8145 156.47 81.5664 156.865 82.5527 156.865C83.8613 156.865 84.7842 156.313 85.3213 155.21V148.955C84.7939 147.852 83.8809 147.3 82.582 147.3C80.541 147.3 79.5205 148.955 79.5205 152.266ZM97.3184 160H93.0703V144.15H97.3184V160ZM92.8213 140.049C92.8213 139.414 93.0312 138.892 93.4512 138.481C93.8809 138.071 94.4619 137.866 95.1943 137.866C95.917 137.866 96.4932 138.071 96.9229 138.481C97.3525 138.892 97.5674 139.414 97.5674 140.049C97.5674 140.693 97.3477 141.221 96.9082 141.631C96.4785 142.041 95.9072 142.246 95.1943 142.246C94.4814 142.246 93.9053 142.041 93.4658 141.631C93.0361 141.221 92.8213 140.693 92.8213 140.049ZM106.752 154.829L109.696 144.15H114.12L108.773 160H104.73L99.3838 144.15H103.808L106.752 154.829ZM123.085 160.293C120.761 160.293 118.866 159.58 117.401 158.154C115.946 156.729 115.219 154.829 115.219 152.456V152.046C115.219 150.454 115.526 149.033 116.142 147.783C116.757 146.523 117.626 145.557 118.749 144.883C119.882 144.199 121.171 143.857 122.616 143.857C124.784 143.857 126.488 144.541 127.729 145.908C128.979 147.275 129.604 149.214 129.604 151.724V153.452H119.511C119.647 154.487 120.058 155.317 120.741 155.942C121.435 156.567 122.309 156.88 123.363 156.88C124.994 156.88 126.269 156.289 127.187 155.107L129.267 157.437C128.632 158.335 127.772 159.038 126.688 159.546C125.604 160.044 124.403 160.293 123.085 160.293ZM122.602 147.285C121.762 147.285 121.078 147.568 120.551 148.135C120.033 148.701 119.701 149.512 119.555 150.566H125.443V150.229C125.424 149.292 125.17 148.569 124.682 148.062C124.193 147.544 123.5 147.285 122.602 147.285ZM140.927 148.12C140.351 148.042 139.843 148.003 139.403 148.003C137.802 148.003 136.752 148.545 136.254 149.629V160H132.021V144.15H136.02L136.137 146.04C136.986 144.585 138.163 143.857 139.667 143.857C140.136 143.857 140.575 143.921 140.985 144.048L140.927 148.12ZM151.562 155.62C151.562 155.103 151.303 154.697 150.785 154.404C150.277 154.102 149.457 153.833 148.324 153.599C144.555 152.808 142.67 151.206 142.67 148.794C142.67 147.388 143.251 146.216 144.413 145.278C145.585 144.331 147.113 143.857 148.998 143.857C151.01 143.857 152.616 144.331 153.817 145.278C155.028 146.226 155.634 147.456 155.634 148.97H151.4C151.4 148.364 151.205 147.866 150.814 147.476C150.424 147.075 149.813 146.875 148.983 146.875C148.271 146.875 147.719 147.036 147.328 147.358C146.938 147.681 146.742 148.091 146.742 148.589C146.742 149.058 146.962 149.438 147.401 149.731C147.851 150.015 148.603 150.264 149.657 150.479C150.712 150.684 151.601 150.918 152.323 151.182C154.56 152.002 155.678 153.423 155.678 155.444C155.678 156.89 155.058 158.062 153.817 158.96C152.577 159.849 150.976 160.293 149.013 160.293C147.685 160.293 146.503 160.059 145.468 159.59C144.442 159.111 143.637 158.462 143.051 157.642C142.465 156.812 142.172 155.918 142.172 154.961H146.186C146.225 155.713 146.503 156.289 147.021 156.689C147.538 157.09 148.231 157.29 149.101 157.29C149.911 157.29 150.521 157.139 150.932 156.836C151.352 156.523 151.562 156.118 151.562 155.62ZM165.712 160.293C163.388 160.293 161.493 159.58 160.028 158.154C158.573 156.729 157.846 154.829 157.846 152.456V152.046C157.846 150.454 158.153 149.033 158.769 147.783C159.384 146.523 160.253 145.557 161.376 144.883C162.509 144.199 163.798 143.857 165.243 143.857C167.411 143.857 169.115 144.541 170.355 145.908C171.605 147.275 172.23 149.214 172.23 151.724V153.452H162.138C162.274 154.487 162.685 155.317 163.368 155.942C164.062 156.567 164.936 156.88 165.99 156.88C167.621 156.88 168.896 156.289 169.813 155.107L171.894 157.437C171.259 158.335 170.399 159.038 169.315 159.546C168.231 160.044 167.03 160.293 165.712 160.293ZM165.229 147.285C164.389 147.285 163.705 147.568 163.178 148.135C162.66 148.701 162.328 149.512 162.182 150.566H168.07V150.229C168.051 149.292 167.797 148.569 167.309 148.062C166.82 147.544 166.127 147.285 165.229 147.285ZM188.051 154.829L190.995 144.15H195.419L190.072 160H186.029L180.683 144.15H185.106L188.051 154.829ZM196.4 151.929C196.4 150.356 196.703 148.955 197.309 147.725C197.914 146.494 198.783 145.542 199.916 144.868C201.059 144.194 202.382 143.857 203.886 143.857C206.024 143.857 207.768 144.512 209.115 145.82C210.473 147.129 211.229 148.906 211.386 151.152L211.415 152.236C211.415 154.668 210.736 156.621 209.379 158.096C208.021 159.561 206.2 160.293 203.915 160.293C201.63 160.293 199.804 159.561 198.437 158.096C197.079 156.631 196.4 154.639 196.4 152.119V151.929ZM200.634 152.236C200.634 153.74 200.917 154.893 201.483 155.693C202.05 156.484 202.86 156.88 203.915 156.88C204.94 156.88 205.741 156.489 206.317 155.708C206.894 154.917 207.182 153.657 207.182 151.929C207.182 150.454 206.894 149.312 206.317 148.501C205.741 147.69 204.931 147.285 203.886 147.285C202.851 147.285 202.05 147.69 201.483 148.501C200.917 149.302 200.634 150.547 200.634 152.236ZM218.49 160H214.242V144.15H218.49V160ZM213.993 140.049C213.993 139.414 214.203 138.892 214.623 138.481C215.053 138.071 215.634 137.866 216.366 137.866C217.089 137.866 217.665 138.071 218.095 138.481C218.524 138.892 218.739 139.414 218.739 140.049C218.739 140.693 218.52 141.221 218.08 141.631C217.65 142.041 217.079 142.246 216.366 142.246C215.653 142.246 215.077 142.041 214.638 141.631C214.208 141.221 213.993 140.693 213.993 140.049ZM228.583 156.88C229.364 156.88 229.999 156.665 230.487 156.235C230.976 155.806 231.229 155.234 231.249 154.521H235.219C235.209 155.596 234.916 156.582 234.34 157.48C233.764 158.369 232.973 159.062 231.967 159.561C230.971 160.049 229.867 160.293 228.656 160.293C226.391 160.293 224.604 159.575 223.295 158.14C221.986 156.694 221.332 154.702 221.332 152.163V151.885C221.332 149.443 221.981 147.495 223.28 146.04C224.579 144.585 226.361 143.857 228.627 143.857C230.609 143.857 232.196 144.424 233.388 145.557C234.589 146.68 235.199 148.179 235.219 150.054H231.249C231.229 149.233 230.976 148.569 230.487 148.062C229.999 147.544 229.354 147.285 228.554 147.285C227.567 147.285 226.82 147.646 226.312 148.369C225.814 149.082 225.565 150.244 225.565 151.855V152.295C225.565 153.926 225.814 155.098 226.312 155.811C226.811 156.523 227.567 156.88 228.583 156.88ZM244.931 160.293C242.606 160.293 240.712 159.58 239.247 158.154C237.792 156.729 237.064 154.829 237.064 152.456V152.046C237.064 150.454 237.372 149.033 237.987 147.783C238.603 146.523 239.472 145.557 240.595 144.883C241.728 144.199 243.017 143.857 244.462 143.857C246.63 143.857 248.334 144.541 249.574 145.908C250.824 147.275 251.449 149.214 251.449 151.724V153.452H241.356C241.493 154.487 241.903 155.317 242.587 155.942C243.28 156.567 244.154 156.88 245.209 156.88C246.84 156.88 248.114 156.289 249.032 155.107L251.112 157.437C250.478 158.335 249.618 159.038 248.534 159.546C247.45 160.044 246.249 160.293 244.931 160.293ZM244.447 147.285C243.607 147.285 242.924 147.568 242.396 148.135C241.879 148.701 241.547 149.512 241.4 150.566H247.289V150.229C247.27 149.292 247.016 148.569 246.527 148.062C246.039 147.544 245.346 147.285 244.447 147.285ZM262.45 155.62C262.45 155.103 262.191 154.697 261.674 154.404C261.166 154.102 260.346 153.833 259.213 153.599C255.443 152.808 253.559 151.206 253.559 148.794C253.559 147.388 254.14 146.216 255.302 145.278C256.474 144.331 258.002 143.857 259.887 143.857C261.898 143.857 263.505 144.331 264.706 145.278C265.917 146.226 266.522 147.456 266.522 148.97H262.289C262.289 148.364 262.094 147.866 261.703 147.476C261.312 147.075 260.702 146.875 259.872 146.875C259.159 146.875 258.607 147.036 258.217 147.358C257.826 147.681 257.631 148.091 257.631 148.589C257.631 149.058 257.851 149.438 258.29 149.731C258.739 150.015 259.491 150.264 260.546 150.479C261.601 150.684 262.489 150.918 263.212 151.182C265.448 152.002 266.566 153.423 266.566 155.444C266.566 156.89 265.946 158.062 264.706 158.96C263.466 159.849 261.864 160.293 259.901 160.293C258.573 160.293 257.392 160.059 256.356 159.59C255.331 159.111 254.525 158.462 253.939 157.642C253.354 156.812 253.061 155.918 253.061 154.961H257.074C257.113 155.713 257.392 156.289 257.909 156.689C258.427 157.09 259.12 157.29 259.989 157.29C260.8 157.29 261.41 157.139 261.82 156.836C262.24 156.523 262.45 156.118 262.45 155.62Z" fill="black"/>
</svg>
