<svg width="339" height="169" viewBox="0 0 339 169" fill="none" xmlns="http://www.w3.org/2000/svg">
<rect x="134" y="1" width="70" height="70" rx="35" fill="#D38F62"/>
<path d="M86.8096 115.445L84.5244 117.906V124H80.1299V102.672H84.5244V112.34L86.458 109.688L91.8926 102.672H97.2979L89.7246 112.149L97.5176 124H92.2881L86.8096 115.445ZM105.809 124.293C103.484 124.293 101.59 123.58 100.125 122.154C98.6699 120.729 97.9424 118.829 97.9424 116.456V116.046C97.9424 114.454 98.25 113.033 98.8652 111.783C99.4805 110.523 100.35 109.557 101.473 108.883C102.605 108.199 103.895 107.857 105.34 107.857C107.508 107.857 109.212 108.541 110.452 109.908C111.702 111.275 112.327 113.214 112.327 115.724V117.452H102.234C102.371 118.487 102.781 119.317 103.465 119.942C104.158 120.567 105.032 120.88 106.087 120.88C107.718 120.88 108.992 120.289 109.91 119.107L111.99 121.437C111.355 122.335 110.496 123.038 109.412 123.546C108.328 124.044 107.127 124.293 105.809 124.293ZM105.325 111.285C104.485 111.285 103.802 111.568 103.274 112.135C102.757 112.701 102.425 113.512 102.278 114.566H108.167V114.229C108.147 113.292 107.894 112.569 107.405 112.062C106.917 111.544 106.224 111.285 105.325 111.285ZM120.457 118.009L123.387 108.15H127.928L121.556 126.461L121.204 127.296C120.257 129.366 118.694 130.401 116.517 130.401C115.901 130.401 115.276 130.309 114.642 130.123V126.915L115.286 126.93C116.087 126.93 116.683 126.808 117.073 126.563C117.474 126.319 117.786 125.914 118.011 125.348L118.509 124.044L112.957 108.15H117.513L120.457 118.009ZM138.226 124V111.256H135.867V108.15H138.226V106.803C138.226 105.025 138.733 103.648 139.749 102.672C140.774 101.686 142.205 101.192 144.041 101.192C144.627 101.192 145.345 101.29 146.194 101.485L146.15 104.767C145.799 104.679 145.369 104.635 144.861 104.635C143.27 104.635 142.474 105.382 142.474 106.876V108.15H145.623V111.256H142.474V124H138.226ZM157.005 124C156.81 123.619 156.668 123.146 156.58 122.579C155.555 123.722 154.222 124.293 152.581 124.293C151.028 124.293 149.739 123.844 148.714 122.945C147.698 122.047 147.19 120.914 147.19 119.547C147.19 117.867 147.811 116.578 149.051 115.68C150.301 114.781 152.103 114.327 154.456 114.317H156.404V113.409C156.404 112.677 156.214 112.091 155.833 111.651C155.462 111.212 154.871 110.992 154.061 110.992C153.348 110.992 152.786 111.163 152.376 111.505C151.976 111.847 151.775 112.315 151.775 112.911H147.542C147.542 111.993 147.825 111.144 148.392 110.362C148.958 109.581 149.759 108.971 150.794 108.531C151.829 108.082 152.991 107.857 154.28 107.857C156.233 107.857 157.781 108.351 158.924 109.337C160.076 110.313 160.652 111.69 160.652 113.468V120.338C160.662 121.842 160.872 122.979 161.282 123.751V124H157.005ZM153.504 121.056C154.129 121.056 154.705 120.919 155.232 120.646C155.76 120.362 156.15 119.986 156.404 119.518V116.793H154.822C152.703 116.793 151.575 117.525 151.438 118.99L151.424 119.239C151.424 119.767 151.609 120.201 151.98 120.543C152.352 120.885 152.859 121.056 153.504 121.056ZM170.496 120.88C171.277 120.88 171.912 120.665 172.4 120.235C172.889 119.806 173.143 119.234 173.162 118.521H177.132C177.122 119.596 176.829 120.582 176.253 121.48C175.677 122.369 174.886 123.062 173.88 123.561C172.884 124.049 171.78 124.293 170.569 124.293C168.304 124.293 166.517 123.575 165.208 122.14C163.899 120.694 163.245 118.702 163.245 116.163V115.885C163.245 113.443 163.895 111.495 165.193 110.04C166.492 108.585 168.274 107.857 170.54 107.857C172.522 107.857 174.109 108.424 175.301 109.557C176.502 110.68 177.112 112.179 177.132 114.054H173.162C173.143 113.233 172.889 112.569 172.4 112.062C171.912 111.544 171.268 111.285 170.467 111.285C169.48 111.285 168.733 111.646 168.226 112.369C167.728 113.082 167.479 114.244 167.479 115.855V116.295C167.479 117.926 167.728 119.098 168.226 119.811C168.724 120.523 169.48 120.88 170.496 120.88ZM184.617 104.254V108.15H187.327V111.256H184.617V119.166C184.617 119.752 184.729 120.172 184.954 120.426C185.179 120.68 185.608 120.807 186.243 120.807C186.712 120.807 187.127 120.772 187.488 120.704V123.912C186.658 124.166 185.804 124.293 184.925 124.293C181.956 124.293 180.442 122.794 180.384 119.796V111.256H178.069V108.15H180.384V104.254H184.617ZM198.27 119.62C198.27 119.103 198.011 118.697 197.493 118.404C196.985 118.102 196.165 117.833 195.032 117.599C191.263 116.808 189.378 115.206 189.378 112.794C189.378 111.388 189.959 110.216 191.121 109.278C192.293 108.331 193.821 107.857 195.706 107.857C197.718 107.857 199.324 108.331 200.525 109.278C201.736 110.226 202.342 111.456 202.342 112.97H198.108C198.108 112.364 197.913 111.866 197.522 111.476C197.132 111.075 196.521 110.875 195.691 110.875C194.979 110.875 194.427 111.036 194.036 111.358C193.646 111.681 193.45 112.091 193.45 112.589C193.45 113.058 193.67 113.438 194.109 113.731C194.559 114.015 195.311 114.264 196.365 114.479C197.42 114.684 198.309 114.918 199.031 115.182C201.268 116.002 202.386 117.423 202.386 119.444C202.386 120.89 201.766 122.062 200.525 122.96C199.285 123.849 197.684 124.293 195.721 124.293C194.393 124.293 193.211 124.059 192.176 123.59C191.15 123.111 190.345 122.462 189.759 121.642C189.173 120.812 188.88 119.918 188.88 118.961H192.894C192.933 119.713 193.211 120.289 193.729 120.689C194.246 121.09 194.939 121.29 195.809 121.29C196.619 121.29 197.229 121.139 197.64 120.836C198.06 120.523 198.27 120.118 198.27 119.62ZM221.78 124C221.585 123.619 221.443 123.146 221.355 122.579C220.33 123.722 218.997 124.293 217.356 124.293C215.804 124.293 214.515 123.844 213.489 122.945C212.474 122.047 211.966 120.914 211.966 119.547C211.966 117.867 212.586 116.578 213.826 115.68C215.076 114.781 216.878 114.327 219.231 114.317H221.18V113.409C221.18 112.677 220.989 112.091 220.608 111.651C220.237 111.212 219.646 110.992 218.836 110.992C218.123 110.992 217.562 111.163 217.151 111.505C216.751 111.847 216.551 112.315 216.551 112.911H212.317C212.317 111.993 212.601 111.144 213.167 110.362C213.733 109.581 214.534 108.971 215.569 108.531C216.604 108.082 217.767 107.857 219.056 107.857C221.009 107.857 222.557 108.351 223.699 109.337C224.852 110.313 225.428 111.69 225.428 113.468V120.338C225.438 121.842 225.647 122.979 226.058 123.751V124H221.78ZM218.279 121.056C218.904 121.056 219.48 120.919 220.008 120.646C220.535 120.362 220.926 119.986 221.18 119.518V116.793H219.598C217.479 116.793 216.351 117.525 216.214 118.99L216.199 119.239C216.199 119.767 216.385 120.201 216.756 120.543C217.127 120.885 217.635 121.056 218.279 121.056ZM232.576 108.15L232.708 109.981C233.841 108.565 235.359 107.857 237.264 107.857C238.943 107.857 240.193 108.351 241.014 109.337C241.834 110.323 242.254 111.798 242.273 113.761V124H238.04V113.863C238.04 112.965 237.845 112.315 237.454 111.915C237.063 111.505 236.414 111.3 235.506 111.3C234.314 111.3 233.421 111.808 232.825 112.823V124H228.592V108.15H232.576ZM244.837 115.958C244.837 113.487 245.389 111.52 246.492 110.055C247.605 108.59 249.124 107.857 251.048 107.857C252.591 107.857 253.865 108.434 254.871 109.586V101.5H259.119V124H255.296L255.091 122.315C254.036 123.634 252.679 124.293 251.019 124.293C249.153 124.293 247.654 123.561 246.521 122.096C245.398 120.621 244.837 118.575 244.837 115.958ZM249.07 116.266C249.07 117.75 249.329 118.888 249.847 119.679C250.364 120.47 251.116 120.865 252.103 120.865C253.411 120.865 254.334 120.313 254.871 119.21V112.955C254.344 111.852 253.431 111.3 252.132 111.3C250.091 111.3 249.07 112.955 249.07 116.266ZM89.0508 159.293C86.7266 159.293 84.832 158.58 83.3672 157.154C81.9121 155.729 81.1846 153.829 81.1846 151.456V151.046C81.1846 149.454 81.4922 148.033 82.1074 146.783C82.7227 145.523 83.5918 144.557 84.7148 143.883C85.8477 143.199 87.1367 142.857 88.582 142.857C90.75 142.857 92.4541 143.541 93.6943 144.908C94.9443 146.275 95.5693 148.214 95.5693 150.724V152.452H85.4766C85.6133 153.487 86.0234 154.317 86.707 154.942C87.4004 155.567 88.2744 155.88 89.3291 155.88C90.96 155.88 92.2344 155.289 93.1523 154.107L95.2324 156.437C94.5977 157.335 93.7383 158.038 92.6543 158.546C91.5703 159.044 90.3691 159.293 89.0508 159.293ZM88.5674 146.285C87.7275 146.285 87.0439 146.568 86.5166 147.135C85.999 147.701 85.667 148.512 85.5205 149.566H91.4092V149.229C91.3896 148.292 91.1357 147.569 90.6475 147.062C90.1592 146.544 89.4658 146.285 88.5674 146.285ZM103.055 139.254V143.15H105.765V146.256H103.055V154.166C103.055 154.752 103.167 155.172 103.392 155.426C103.616 155.68 104.046 155.807 104.681 155.807C105.149 155.807 105.564 155.772 105.926 155.704V158.912C105.096 159.166 104.241 159.293 103.362 159.293C100.394 159.293 98.8799 157.794 98.8213 154.796V146.256H96.5068V143.15H98.8213V139.254H103.055ZM112.591 159H108.343V143.15H112.591V159ZM108.094 139.049C108.094 138.414 108.304 137.892 108.724 137.481C109.153 137.071 109.734 136.866 110.467 136.866C111.189 136.866 111.766 137.071 112.195 137.481C112.625 137.892 112.84 138.414 112.84 139.049C112.84 139.693 112.62 140.221 112.181 140.631C111.751 141.041 111.18 141.246 110.467 141.246C109.754 141.246 109.178 141.041 108.738 140.631C108.309 140.221 108.094 139.693 108.094 139.049ZM115.433 150.929C115.433 148.438 115.984 146.471 117.088 145.025C118.201 143.58 119.725 142.857 121.658 142.857C123.357 142.857 124.71 143.507 125.716 144.806L125.994 143.15H129.715V165.094H125.467V157.638C124.49 158.741 123.211 159.293 121.629 159.293C119.744 159.293 118.24 158.561 117.117 157.096C115.994 155.631 115.433 153.575 115.433 150.929ZM119.666 151.236C119.666 152.75 119.93 153.902 120.457 154.693C120.994 155.484 121.746 155.88 122.713 155.88C124.012 155.88 124.93 155.362 125.467 154.327V147.779C124.939 146.783 124.031 146.285 122.742 146.285C121.766 146.285 121.009 146.681 120.472 147.472C119.935 148.263 119.666 149.518 119.666 151.236ZM142.547 157.389C141.502 158.658 140.057 159.293 138.211 159.293C136.512 159.293 135.213 158.805 134.314 157.828C133.426 156.852 132.972 155.421 132.952 153.536V143.15H137.186V153.39C137.186 155.04 137.938 155.865 139.441 155.865C140.877 155.865 141.863 155.367 142.4 154.371V143.15H146.648V159H142.664L142.547 157.389ZM157.137 159.293C154.812 159.293 152.918 158.58 151.453 157.154C149.998 155.729 149.271 153.829 149.271 151.456V151.046C149.271 149.454 149.578 148.033 150.193 146.783C150.809 145.523 151.678 144.557 152.801 143.883C153.934 143.199 155.223 142.857 156.668 142.857C158.836 142.857 160.54 143.541 161.78 144.908C163.03 146.275 163.655 148.214 163.655 150.724V152.452H153.562C153.699 153.487 154.109 154.317 154.793 154.942C155.486 155.567 156.36 155.88 157.415 155.88C159.046 155.88 160.32 155.289 161.238 154.107L163.318 156.437C162.684 157.335 161.824 158.038 160.74 158.546C159.656 159.044 158.455 159.293 157.137 159.293ZM156.653 146.285C155.813 146.285 155.13 146.568 154.603 147.135C154.085 147.701 153.753 148.512 153.606 149.566H159.495V149.229C159.476 148.292 159.222 147.569 158.733 147.062C158.245 146.544 157.552 146.285 156.653 146.285ZM171.141 139.254V143.15H173.851V146.256H171.141V154.166C171.141 154.752 171.253 155.172 171.478 155.426C171.702 155.68 172.132 155.807 172.767 155.807C173.235 155.807 173.65 155.772 174.012 155.704V158.912C173.182 159.166 172.327 159.293 171.448 159.293C168.479 159.293 166.966 157.794 166.907 154.796V146.256H164.593V143.15H166.907V139.254H171.141ZM181.277 139.254V143.15H183.987V146.256H181.277V154.166C181.277 154.752 181.39 155.172 181.614 155.426C181.839 155.68 182.269 155.807 182.903 155.807C183.372 155.807 183.787 155.772 184.148 155.704V158.912C183.318 159.166 182.464 159.293 181.585 159.293C178.616 159.293 177.103 157.794 177.044 154.796V146.256H174.729V143.15H177.044V139.254H181.277ZM193.641 159.293C191.316 159.293 189.422 158.58 187.957 157.154C186.502 155.729 185.774 153.829 185.774 151.456V151.046C185.774 149.454 186.082 148.033 186.697 146.783C187.312 145.523 188.182 144.557 189.305 143.883C190.438 143.199 191.727 142.857 193.172 142.857C195.34 142.857 197.044 143.541 198.284 144.908C199.534 146.275 200.159 148.214 200.159 150.724V152.452H190.066C190.203 153.487 190.613 154.317 191.297 154.942C191.99 155.567 192.864 155.88 193.919 155.88C195.55 155.88 196.824 155.289 197.742 154.107L199.822 156.437C199.188 157.335 198.328 158.038 197.244 158.546C196.16 159.044 194.959 159.293 193.641 159.293ZM193.157 146.285C192.317 146.285 191.634 146.568 191.106 147.135C190.589 147.701 190.257 148.512 190.11 149.566H195.999V149.229C195.979 148.292 195.726 147.569 195.237 147.062C194.749 146.544 194.056 146.285 193.157 146.285ZM215.115 139.254V143.15H217.825V146.256H215.115V154.166C215.115 154.752 215.228 155.172 215.452 155.426C215.677 155.68 216.106 155.807 216.741 155.807C217.21 155.807 217.625 155.772 217.986 155.704V158.912C217.156 159.166 216.302 159.293 215.423 159.293C212.454 159.293 210.94 157.794 210.882 154.796V146.256H208.567V143.15H210.882V139.254H215.115ZM224.651 159H220.403V143.15H224.651V159ZM220.154 139.049C220.154 138.414 220.364 137.892 220.784 137.481C221.214 137.071 221.795 136.866 222.527 136.866C223.25 136.866 223.826 137.071 224.256 137.481C224.686 137.892 224.9 138.414 224.9 139.049C224.9 139.693 224.681 140.221 224.241 140.631C223.812 141.041 223.24 141.246 222.527 141.246C221.814 141.246 221.238 141.041 220.799 140.631C220.369 140.221 220.154 139.693 220.154 139.049ZM242.42 151.222C242.42 153.663 241.863 155.621 240.75 157.096C239.646 158.561 238.152 159.293 236.268 159.293C234.666 159.293 233.372 158.736 232.386 157.623V165.094H228.152V143.15H232.078L232.225 144.703C233.25 143.473 234.588 142.857 236.238 142.857C238.191 142.857 239.71 143.58 240.794 145.025C241.878 146.471 242.42 148.463 242.42 151.002V151.222ZM238.187 150.914C238.187 149.439 237.923 148.302 237.396 147.501C236.878 146.7 236.121 146.3 235.125 146.3C233.797 146.3 232.884 146.808 232.386 147.823V154.312C232.903 155.357 233.826 155.88 235.154 155.88C237.176 155.88 238.187 154.225 238.187 150.914ZM253.641 154.62C253.641 154.103 253.382 153.697 252.864 153.404C252.356 153.102 251.536 152.833 250.403 152.599C246.634 151.808 244.749 150.206 244.749 147.794C244.749 146.388 245.33 145.216 246.492 144.278C247.664 143.331 249.192 142.857 251.077 142.857C253.089 142.857 254.695 143.331 255.896 144.278C257.107 145.226 257.713 146.456 257.713 147.97H253.479C253.479 147.364 253.284 146.866 252.894 146.476C252.503 146.075 251.893 145.875 251.062 145.875C250.35 145.875 249.798 146.036 249.407 146.358C249.017 146.681 248.821 147.091 248.821 147.589C248.821 148.058 249.041 148.438 249.48 148.731C249.93 149.015 250.682 149.264 251.736 149.479C252.791 149.684 253.68 149.918 254.402 150.182C256.639 151.002 257.757 152.423 257.757 154.444C257.757 155.89 257.137 157.062 255.896 157.96C254.656 158.849 253.055 159.293 251.092 159.293C249.764 159.293 248.582 159.059 247.547 158.59C246.521 158.111 245.716 157.462 245.13 156.642C244.544 155.812 244.251 154.918 244.251 153.961H248.265C248.304 154.713 248.582 155.289 249.1 155.689C249.617 156.09 250.311 156.29 251.18 156.29C251.99 156.29 252.601 156.139 253.011 155.836C253.431 155.523 253.641 155.118 253.641 154.62Z" fill="black"/>
</svg>
