<svg width="340" height="169" viewBox="0 0 340 169" fill="none" xmlns="http://www.w3.org/2000/svg">
<rect x="135" y="1" width="70" height="70" rx="35" fill="#F94C43"/>
<path d="M117.264 119.605H109.559L108.094 124H103.421L111.36 102.672H115.433L123.416 124H118.743L117.264 119.605ZM110.745 116.046H116.077L113.396 108.062L110.745 116.046ZM139.192 120.88C139.974 120.88 140.608 120.665 141.097 120.235C141.585 119.806 141.839 119.234 141.858 118.521H145.828C145.818 119.596 145.525 120.582 144.949 121.48C144.373 122.369 143.582 123.062 142.576 123.561C141.58 124.049 140.477 124.293 139.266 124.293C137 124.293 135.213 123.575 133.904 122.14C132.596 120.694 131.941 118.702 131.941 116.163V115.885C131.941 113.443 132.591 111.495 133.89 110.04C135.188 108.585 136.971 107.857 139.236 107.857C141.219 107.857 142.806 108.424 143.997 109.557C145.198 110.68 145.809 112.179 145.828 114.054H141.858C141.839 113.233 141.585 112.569 141.097 112.062C140.608 111.544 139.964 111.285 139.163 111.285C138.177 111.285 137.43 111.646 136.922 112.369C136.424 113.082 136.175 114.244 136.175 115.855V116.295C136.175 117.926 136.424 119.098 136.922 119.811C137.42 120.523 138.177 120.88 139.192 120.88ZM147.586 115.929C147.586 114.356 147.889 112.955 148.494 111.725C149.1 110.494 149.969 109.542 151.102 108.868C152.244 108.194 153.567 107.857 155.071 107.857C157.21 107.857 158.953 108.512 160.301 109.82C161.658 111.129 162.415 112.906 162.571 115.152L162.601 116.236C162.601 118.668 161.922 120.621 160.564 122.096C159.207 123.561 157.386 124.293 155.101 124.293C152.815 124.293 150.989 123.561 149.622 122.096C148.265 120.631 147.586 118.639 147.586 116.119V115.929ZM151.819 116.236C151.819 117.74 152.103 118.893 152.669 119.693C153.235 120.484 154.046 120.88 155.101 120.88C156.126 120.88 156.927 120.489 157.503 119.708C158.079 118.917 158.367 117.657 158.367 115.929C158.367 114.454 158.079 113.312 157.503 112.501C156.927 111.69 156.116 111.285 155.071 111.285C154.036 111.285 153.235 111.69 152.669 112.501C152.103 113.302 151.819 114.547 151.819 116.236ZM169.104 108.15L169.236 109.981C170.369 108.565 171.888 107.857 173.792 107.857C175.472 107.857 176.722 108.351 177.542 109.337C178.362 110.323 178.782 111.798 178.802 113.761V124H174.568V113.863C174.568 112.965 174.373 112.315 173.982 111.915C173.592 111.505 172.942 111.3 172.034 111.3C170.843 111.3 169.949 111.808 169.354 112.823V124H165.12V108.15H169.104ZM188.616 120.88C189.397 120.88 190.032 120.665 190.521 120.235C191.009 119.806 191.263 119.234 191.282 118.521H195.252C195.242 119.596 194.949 120.582 194.373 121.48C193.797 122.369 193.006 123.062 192 123.561C191.004 124.049 189.9 124.293 188.689 124.293C186.424 124.293 184.637 123.575 183.328 122.14C182.02 120.694 181.365 118.702 181.365 116.163V115.885C181.365 113.443 182.015 111.495 183.313 110.04C184.612 108.585 186.395 107.857 188.66 107.857C190.643 107.857 192.229 108.424 193.421 109.557C194.622 110.68 195.232 112.179 195.252 114.054H191.282C191.263 113.233 191.009 112.569 190.521 112.062C190.032 111.544 189.388 111.285 188.587 111.285C187.601 111.285 186.854 111.646 186.346 112.369C185.848 113.082 185.599 114.244 185.599 115.855V116.295C185.599 117.926 185.848 119.098 186.346 119.811C186.844 120.523 187.601 120.88 188.616 120.88ZM202.137 124H197.889V108.15H202.137V124ZM197.64 104.049C197.64 103.414 197.85 102.892 198.27 102.481C198.699 102.071 199.28 101.866 200.013 101.866C200.735 101.866 201.312 102.071 201.741 102.481C202.171 102.892 202.386 103.414 202.386 104.049C202.386 104.693 202.166 105.221 201.727 105.631C201.297 106.041 200.726 106.246 200.013 106.246C199.3 106.246 198.724 106.041 198.284 105.631C197.854 105.221 197.64 104.693 197.64 104.049ZM214.222 119.62C214.222 119.103 213.963 118.697 213.445 118.404C212.938 118.102 212.117 117.833 210.984 117.599C207.215 116.808 205.33 115.206 205.33 112.794C205.33 111.388 205.911 110.216 207.073 109.278C208.245 108.331 209.773 107.857 211.658 107.857C213.67 107.857 215.276 108.331 216.478 109.278C217.688 110.226 218.294 111.456 218.294 112.97H214.061C214.061 112.364 213.865 111.866 213.475 111.476C213.084 111.075 212.474 110.875 211.644 110.875C210.931 110.875 210.379 111.036 209.988 111.358C209.598 111.681 209.402 112.091 209.402 112.589C209.402 113.058 209.622 113.438 210.062 113.731C210.511 114.015 211.263 114.264 212.317 114.479C213.372 114.684 214.261 114.918 214.983 115.182C217.22 116.002 218.338 117.423 218.338 119.444C218.338 120.89 217.718 122.062 216.478 122.96C215.237 123.849 213.636 124.293 211.673 124.293C210.345 124.293 209.163 124.059 208.128 123.59C207.103 123.111 206.297 122.462 205.711 121.642C205.125 120.812 204.832 119.918 204.832 118.961H208.846C208.885 119.713 209.163 120.289 209.681 120.689C210.198 121.09 210.892 121.29 211.761 121.29C212.571 121.29 213.182 121.139 213.592 120.836C214.012 120.523 214.222 120.118 214.222 119.62ZM228.372 124.293C226.048 124.293 224.153 123.58 222.688 122.154C221.233 120.729 220.506 118.829 220.506 116.456V116.046C220.506 114.454 220.813 113.033 221.429 111.783C222.044 110.523 222.913 109.557 224.036 108.883C225.169 108.199 226.458 107.857 227.903 107.857C230.071 107.857 231.775 108.541 233.016 109.908C234.266 111.275 234.891 113.214 234.891 115.724V117.452H224.798C224.935 118.487 225.345 119.317 226.028 119.942C226.722 120.567 227.596 120.88 228.65 120.88C230.281 120.88 231.556 120.289 232.474 119.107L234.554 121.437C233.919 122.335 233.06 123.038 231.976 123.546C230.892 124.044 229.69 124.293 228.372 124.293ZM227.889 111.285C227.049 111.285 226.365 111.568 225.838 112.135C225.32 112.701 224.988 113.512 224.842 114.566H230.73V114.229C230.711 113.292 230.457 112.569 229.969 112.062C229.48 111.544 228.787 111.285 227.889 111.285Z" fill="black"/>
<path d="M102.381 160H98.1475V143.682L93.0938 145.249V141.807L101.927 138.643H102.381V160ZM117.732 152.573H109.485V149.16H117.732V152.573ZM125.262 145.879C126.385 144.531 127.796 143.857 129.495 143.857C132.933 143.857 134.676 145.854 134.725 149.849V160H130.491V149.966C130.491 149.058 130.296 148.389 129.905 147.959C129.515 147.52 128.865 147.3 127.957 147.3C126.717 147.3 125.818 147.778 125.262 148.735V160H121.028V137.5H125.262V145.879ZM137.259 151.929C137.259 150.356 137.562 148.955 138.167 147.725C138.772 146.494 139.642 145.542 140.774 144.868C141.917 144.194 143.24 143.857 144.744 143.857C146.883 143.857 148.626 144.512 149.974 145.82C151.331 147.129 152.088 148.906 152.244 151.152L152.273 152.236C152.273 154.668 151.595 156.621 150.237 158.096C148.88 159.561 147.059 160.293 144.773 160.293C142.488 160.293 140.662 159.561 139.295 158.096C137.938 156.631 137.259 154.639 137.259 152.119V151.929ZM141.492 152.236C141.492 153.74 141.775 154.893 142.342 155.693C142.908 156.484 143.719 156.88 144.773 156.88C145.799 156.88 146.6 156.489 147.176 155.708C147.752 154.917 148.04 153.657 148.04 151.929C148.04 150.454 147.752 149.312 147.176 148.501C146.6 147.69 145.789 147.285 144.744 147.285C143.709 147.285 142.908 147.69 142.342 148.501C141.775 149.302 141.492 150.547 141.492 152.236ZM164.373 158.389C163.328 159.658 161.883 160.293 160.037 160.293C158.338 160.293 157.039 159.805 156.141 158.828C155.252 157.852 154.798 156.421 154.778 154.536V144.15H159.012V154.39C159.012 156.04 159.764 156.865 161.268 156.865C162.703 156.865 163.689 156.367 164.227 155.371V144.15H168.475V160H164.49L164.373 158.389ZM180.574 148.12C179.998 148.042 179.49 148.003 179.051 148.003C177.449 148.003 176.399 148.545 175.901 149.629V160H171.668V144.15H175.667L175.784 146.04C176.634 144.585 177.811 143.857 179.314 143.857C179.783 143.857 180.223 143.921 180.633 144.048L180.574 148.12ZM199.002 148.12C198.426 148.042 197.918 148.003 197.479 148.003C195.877 148.003 194.827 148.545 194.329 149.629V160H190.096V144.15H194.095L194.212 146.04C195.062 144.585 196.238 143.857 197.742 143.857C198.211 143.857 198.65 143.921 199.061 144.048L199.002 148.12ZM208.055 160.293C205.73 160.293 203.836 159.58 202.371 158.154C200.916 156.729 200.188 154.829 200.188 152.456V152.046C200.188 150.454 200.496 149.033 201.111 147.783C201.727 146.523 202.596 145.557 203.719 144.883C204.852 144.199 206.141 143.857 207.586 143.857C209.754 143.857 211.458 144.541 212.698 145.908C213.948 147.275 214.573 149.214 214.573 151.724V153.452H204.48C204.617 154.487 205.027 155.317 205.711 155.942C206.404 156.567 207.278 156.88 208.333 156.88C209.964 156.88 211.238 156.289 212.156 155.107L214.236 157.437C213.602 158.335 212.742 159.038 211.658 159.546C210.574 160.044 209.373 160.293 208.055 160.293ZM207.571 147.285C206.731 147.285 206.048 147.568 205.521 148.135C205.003 148.701 204.671 149.512 204.524 150.566H210.413V150.229C210.394 149.292 210.14 148.569 209.651 148.062C209.163 147.544 208.47 147.285 207.571 147.285ZM226.175 160C225.979 159.619 225.838 159.146 225.75 158.579C224.725 159.722 223.392 160.293 221.751 160.293C220.198 160.293 218.909 159.844 217.884 158.945C216.868 158.047 216.36 156.914 216.36 155.547C216.36 153.867 216.98 152.578 218.221 151.68C219.471 150.781 221.272 150.327 223.626 150.317H225.574V149.409C225.574 148.677 225.384 148.091 225.003 147.651C224.632 147.212 224.041 146.992 223.23 146.992C222.518 146.992 221.956 147.163 221.546 147.505C221.146 147.847 220.945 148.315 220.945 148.911H216.712C216.712 147.993 216.995 147.144 217.562 146.362C218.128 145.581 218.929 144.971 219.964 144.531C220.999 144.082 222.161 143.857 223.45 143.857C225.403 143.857 226.951 144.351 228.094 145.337C229.246 146.313 229.822 147.69 229.822 149.468V156.338C229.832 157.842 230.042 158.979 230.452 159.751V160H226.175ZM222.674 157.056C223.299 157.056 223.875 156.919 224.402 156.646C224.93 156.362 225.32 155.986 225.574 155.518V152.793H223.992C221.873 152.793 220.745 153.525 220.608 154.99L220.594 155.239C220.594 155.767 220.779 156.201 221.15 156.543C221.521 156.885 222.029 157.056 222.674 157.056ZM232.415 151.958C232.415 149.487 232.967 147.52 234.07 146.055C235.184 144.59 236.702 143.857 238.626 143.857C240.169 143.857 241.443 144.434 242.449 145.586V137.5H246.697V160H242.874L242.669 158.315C241.614 159.634 240.257 160.293 238.597 160.293C236.731 160.293 235.232 159.561 234.1 158.096C232.977 156.621 232.415 154.575 232.415 151.958ZM236.648 152.266C236.648 153.75 236.907 154.888 237.425 155.679C237.942 156.47 238.694 156.865 239.681 156.865C240.989 156.865 241.912 156.313 242.449 155.21V148.955C241.922 147.852 241.009 147.3 239.71 147.3C237.669 147.3 236.648 148.955 236.648 152.266Z" fill="black"/>
</svg>
