<svg width="339" height="169" viewBox="0 0 339 169" fill="none" xmlns="http://www.w3.org/2000/svg">
<rect x="135" y="1" width="70" height="70" rx="35" fill="#D399FF"/>
<path d="M129.482 124H125.088V102.672H129.482V124ZM137.188 108.15L137.319 109.981C138.452 108.565 139.971 107.857 141.875 107.857C143.555 107.857 144.805 108.351 145.625 109.337C146.445 110.323 146.865 111.798 146.885 113.761V124H142.651V113.863C142.651 112.965 142.456 112.315 142.065 111.915C141.675 111.505 141.025 111.3 140.117 111.3C138.926 111.3 138.032 111.808 137.437 112.823V124H133.203V108.15H137.188ZM158.691 119.62C158.691 119.103 158.433 118.697 157.915 118.404C157.407 118.102 156.587 117.833 155.454 117.599C151.685 116.808 149.8 115.206 149.8 112.794C149.8 111.388 150.381 110.216 151.543 109.278C152.715 108.331 154.243 107.857 156.128 107.857C158.14 107.857 159.746 108.331 160.947 109.278C162.158 110.226 162.764 111.456 162.764 112.97H158.53C158.53 112.364 158.335 111.866 157.944 111.476C157.554 111.075 156.943 110.875 156.113 110.875C155.4 110.875 154.849 111.036 154.458 111.358C154.067 111.681 153.872 112.091 153.872 112.589C153.872 113.058 154.092 113.438 154.531 113.731C154.98 114.015 155.732 114.264 156.787 114.479C157.842 114.684 158.73 114.918 159.453 115.182C161.689 116.002 162.808 117.423 162.808 119.444C162.808 120.89 162.188 122.062 160.947 122.96C159.707 123.849 158.105 124.293 156.143 124.293C154.814 124.293 153.633 124.059 152.598 123.59C151.572 123.111 150.767 122.462 150.181 121.642C149.595 120.812 149.302 119.918 149.302 118.961H153.315C153.354 119.713 153.633 120.289 154.15 120.689C154.668 121.09 155.361 121.29 156.23 121.29C157.041 121.29 157.651 121.139 158.062 120.836C158.481 120.523 158.691 120.118 158.691 119.62ZM170.615 104.254V108.15H173.325V111.256H170.615V119.166C170.615 119.752 170.728 120.172 170.952 120.426C171.177 120.68 171.606 120.807 172.241 120.807C172.71 120.807 173.125 120.772 173.486 120.704V123.912C172.656 124.166 171.802 124.293 170.923 124.293C167.954 124.293 166.44 122.794 166.382 119.796V111.256H164.067V108.15H166.382V104.254H170.615ZM184.868 124C184.673 123.619 184.531 123.146 184.443 122.579C183.418 123.722 182.085 124.293 180.444 124.293C178.892 124.293 177.603 123.844 176.577 122.945C175.562 122.047 175.054 120.914 175.054 119.547C175.054 117.867 175.674 116.578 176.914 115.68C178.164 114.781 179.966 114.327 182.319 114.317H184.268V113.409C184.268 112.677 184.077 112.091 183.696 111.651C183.325 111.212 182.734 110.992 181.924 110.992C181.211 110.992 180.649 111.163 180.239 111.505C179.839 111.847 179.639 112.315 179.639 112.911H175.405C175.405 111.993 175.688 111.144 176.255 110.362C176.821 109.581 177.622 108.971 178.657 108.531C179.692 108.082 180.854 107.857 182.144 107.857C184.097 107.857 185.645 108.351 186.787 109.337C187.939 110.313 188.516 111.69 188.516 113.468V120.338C188.525 121.842 188.735 122.979 189.146 123.751V124H184.868ZM181.367 121.056C181.992 121.056 182.568 120.919 183.096 120.646C183.623 120.362 184.014 119.986 184.268 119.518V116.793H182.686C180.566 116.793 179.438 117.525 179.302 118.99L179.287 119.239C179.287 119.767 179.473 120.201 179.844 120.543C180.215 120.885 180.723 121.056 181.367 121.056ZM195.664 108.15L195.796 109.981C196.929 108.565 198.447 107.857 200.352 107.857C202.031 107.857 203.281 108.351 204.102 109.337C204.922 110.323 205.342 111.798 205.361 113.761V124H201.128V113.863C201.128 112.965 200.933 112.315 200.542 111.915C200.151 111.505 199.502 111.3 198.594 111.3C197.402 111.3 196.509 111.808 195.913 112.823V124H191.68V108.15H195.664ZM213.652 104.254V108.15H216.362V111.256H213.652V119.166C213.652 119.752 213.765 120.172 213.989 120.426C214.214 120.68 214.644 120.807 215.278 120.807C215.747 120.807 216.162 120.772 216.523 120.704V123.912C215.693 124.166 214.839 124.293 213.96 124.293C210.991 124.293 209.478 122.794 209.419 119.796V111.256H207.104V108.15H209.419V104.254H213.652Z" fill="black"/>
<path d="M77.9053 151.958C77.9053 149.487 78.457 147.52 79.5605 146.055C80.6738 144.59 82.1924 143.857 84.1162 143.857C85.6592 143.857 86.9336 144.434 87.9395 145.586V137.5H92.1875V160H88.3643L88.1592 158.315C87.1045 159.634 85.7471 160.293 84.0869 160.293C82.2217 160.293 80.7227 159.561 79.5898 158.096C78.4668 156.621 77.9053 154.575 77.9053 151.958ZM82.1387 152.266C82.1387 153.75 82.3975 154.888 82.915 155.679C83.4326 156.47 84.1846 156.865 85.1709 156.865C86.4795 156.865 87.4023 156.313 87.9395 155.21V148.955C87.4121 147.852 86.499 147.3 85.2002 147.3C83.1592 147.3 82.1387 148.955 82.1387 152.266ZM99.9365 160H95.6885V144.15H99.9365V160ZM95.4395 140.049C95.4395 139.414 95.6494 138.892 96.0693 138.481C96.499 138.071 97.0801 137.866 97.8125 137.866C98.5352 137.866 99.1113 138.071 99.541 138.481C99.9707 138.892 100.186 139.414 100.186 140.049C100.186 140.693 99.9658 141.221 99.5264 141.631C99.0967 142.041 98.5254 142.246 97.8125 142.246C97.0996 142.246 96.5234 142.041 96.084 141.631C95.6543 141.221 95.4395 140.693 95.4395 140.049ZM102.822 151.958C102.822 149.526 103.398 147.568 104.551 146.084C105.713 144.6 107.275 143.857 109.238 143.857C110.977 143.857 112.329 144.453 113.296 145.645L113.472 144.15H117.31V159.473C117.31 160.859 116.992 162.065 116.357 163.091C115.732 164.116 114.849 164.897 113.706 165.435C112.563 165.972 111.226 166.24 109.692 166.24C108.53 166.24 107.397 166.006 106.294 165.537C105.19 165.078 104.355 164.482 103.789 163.75L105.664 161.172C106.719 162.354 107.998 162.944 109.502 162.944C110.625 162.944 111.499 162.642 112.124 162.036C112.749 161.44 113.062 160.591 113.062 159.487V158.638C112.085 159.741 110.801 160.293 109.209 160.293C107.305 160.293 105.762 159.551 104.58 158.066C103.408 156.572 102.822 154.595 102.822 152.134V151.958ZM107.056 152.266C107.056 153.701 107.344 154.829 107.92 155.649C108.496 156.46 109.287 156.865 110.293 156.865C111.582 156.865 112.505 156.382 113.062 155.415V148.75C112.495 147.783 111.582 147.3 110.322 147.3C109.307 147.3 108.506 147.715 107.92 148.545C107.344 149.375 107.056 150.615 107.056 152.266ZM125.044 160H120.796V144.15H125.044V160ZM120.547 140.049C120.547 139.414 120.757 138.892 121.177 138.481C121.606 138.071 122.188 137.866 122.92 137.866C123.643 137.866 124.219 138.071 124.648 138.481C125.078 138.892 125.293 139.414 125.293 140.049C125.293 140.693 125.073 141.221 124.634 141.631C124.204 142.041 123.633 142.246 122.92 142.246C122.207 142.246 121.631 142.041 121.191 141.631C120.762 141.221 120.547 140.693 120.547 140.049ZM133.613 140.254V144.15H136.323V147.256H133.613V155.166C133.613 155.752 133.726 156.172 133.95 156.426C134.175 156.68 134.604 156.807 135.239 156.807C135.708 156.807 136.123 156.772 136.484 156.704V159.912C135.654 160.166 134.8 160.293 133.921 160.293C130.952 160.293 129.438 158.794 129.38 155.796V147.256H127.065V144.15H129.38V140.254H133.613ZM147.866 160C147.671 159.619 147.529 159.146 147.441 158.579C146.416 159.722 145.083 160.293 143.442 160.293C141.89 160.293 140.601 159.844 139.575 158.945C138.56 158.047 138.052 156.914 138.052 155.547C138.052 153.867 138.672 152.578 139.912 151.68C141.162 150.781 142.964 150.327 145.317 150.317H147.266V149.409C147.266 148.677 147.075 148.091 146.694 147.651C146.323 147.212 145.732 146.992 144.922 146.992C144.209 146.992 143.647 147.163 143.237 147.505C142.837 147.847 142.637 148.315 142.637 148.911H138.403C138.403 147.993 138.687 147.144 139.253 146.362C139.819 145.581 140.62 144.971 141.655 144.531C142.69 144.082 143.853 143.857 145.142 143.857C147.095 143.857 148.643 144.351 149.785 145.337C150.938 146.313 151.514 147.69 151.514 149.468V156.338C151.523 157.842 151.733 158.979 152.144 159.751V160H147.866ZM144.365 157.056C144.99 157.056 145.566 156.919 146.094 156.646C146.621 156.362 147.012 155.986 147.266 155.518V152.793H145.684C143.564 152.793 142.437 153.525 142.3 154.99L142.285 155.239C142.285 155.767 142.471 156.201 142.842 156.543C143.213 156.885 143.721 157.056 144.365 157.056ZM159.233 160H154.985V137.5H159.233V160ZM179.39 160C179.194 159.619 179.053 159.146 178.965 158.579C177.939 159.722 176.606 160.293 174.966 160.293C173.413 160.293 172.124 159.844 171.099 158.945C170.083 158.047 169.575 156.914 169.575 155.547C169.575 153.867 170.195 152.578 171.436 151.68C172.686 150.781 174.487 150.327 176.841 150.317H178.789V149.409C178.789 148.677 178.599 148.091 178.218 147.651C177.847 147.212 177.256 146.992 176.445 146.992C175.732 146.992 175.171 147.163 174.761 147.505C174.36 147.847 174.16 148.315 174.16 148.911H169.927C169.927 147.993 170.21 147.144 170.776 146.362C171.343 145.581 172.144 144.971 173.179 144.531C174.214 144.082 175.376 143.857 176.665 143.857C178.618 143.857 180.166 144.351 181.309 145.337C182.461 146.313 183.037 147.69 183.037 149.468V156.338C183.047 157.842 183.257 158.979 183.667 159.751V160H179.39ZM175.889 157.056C176.514 157.056 177.09 156.919 177.617 156.646C178.145 156.362 178.535 155.986 178.789 155.518V152.793H177.207C175.088 152.793 173.96 153.525 173.823 154.99L173.809 155.239C173.809 155.767 173.994 156.201 174.365 156.543C174.736 156.885 175.244 157.056 175.889 157.056ZM192.881 156.88C193.662 156.88 194.297 156.665 194.785 156.235C195.273 155.806 195.527 155.234 195.547 154.521H199.517C199.507 155.596 199.214 156.582 198.638 157.48C198.062 158.369 197.271 159.062 196.265 159.561C195.269 160.049 194.165 160.293 192.954 160.293C190.688 160.293 188.901 159.575 187.593 158.14C186.284 156.694 185.63 154.702 185.63 152.163V151.885C185.63 149.443 186.279 147.495 187.578 146.04C188.877 144.585 190.659 143.857 192.925 143.857C194.907 143.857 196.494 144.424 197.686 145.557C198.887 146.68 199.497 148.179 199.517 150.054H195.547C195.527 149.233 195.273 148.569 194.785 148.062C194.297 147.544 193.652 147.285 192.852 147.285C191.865 147.285 191.118 147.646 190.61 148.369C190.112 149.082 189.863 150.244 189.863 151.855V152.295C189.863 153.926 190.112 155.098 190.61 155.811C191.108 156.523 191.865 156.88 192.881 156.88ZM208.525 156.88C209.307 156.88 209.941 156.665 210.43 156.235C210.918 155.806 211.172 155.234 211.191 154.521H215.161C215.151 155.596 214.858 156.582 214.282 157.48C213.706 158.369 212.915 159.062 211.909 159.561C210.913 160.049 209.81 160.293 208.599 160.293C206.333 160.293 204.546 159.575 203.237 158.14C201.929 156.694 201.274 154.702 201.274 152.163V151.885C201.274 149.443 201.924 147.495 203.223 146.04C204.521 144.585 206.304 143.857 208.569 143.857C210.552 143.857 212.139 144.424 213.33 145.557C214.531 146.68 215.142 148.179 215.161 150.054H211.191C211.172 149.233 210.918 148.569 210.43 148.062C209.941 147.544 209.297 147.285 208.496 147.285C207.51 147.285 206.763 147.646 206.255 148.369C205.757 149.082 205.508 150.244 205.508 151.855V152.295C205.508 153.926 205.757 155.098 206.255 155.811C206.753 156.523 207.51 156.88 208.525 156.88ZM224.873 160.293C222.549 160.293 220.654 159.58 219.189 158.154C217.734 156.729 217.007 154.829 217.007 152.456V152.046C217.007 150.454 217.314 149.033 217.93 147.783C218.545 146.523 219.414 145.557 220.537 144.883C221.67 144.199 222.959 143.857 224.404 143.857C226.572 143.857 228.276 144.541 229.517 145.908C230.767 147.275 231.392 149.214 231.392 151.724V153.452H221.299C221.436 154.487 221.846 155.317 222.529 155.942C223.223 156.567 224.097 156.88 225.151 156.88C226.782 156.88 228.057 156.289 228.975 155.107L231.055 157.437C230.42 158.335 229.561 159.038 228.477 159.546C227.393 160.044 226.191 160.293 224.873 160.293ZM224.39 147.285C223.55 147.285 222.866 147.568 222.339 148.135C221.821 148.701 221.489 149.512 221.343 150.566H227.231V150.229C227.212 149.292 226.958 148.569 226.47 148.062C225.981 147.544 225.288 147.285 224.39 147.285ZM242.393 155.62C242.393 155.103 242.134 154.697 241.616 154.404C241.108 154.102 240.288 153.833 239.155 153.599C235.386 152.808 233.501 151.206 233.501 148.794C233.501 147.388 234.082 146.216 235.244 145.278C236.416 144.331 237.944 143.857 239.829 143.857C241.841 143.857 243.447 144.331 244.648 145.278C245.859 146.226 246.465 147.456 246.465 148.97H242.231C242.231 148.364 242.036 147.866 241.646 147.476C241.255 147.075 240.645 146.875 239.814 146.875C239.102 146.875 238.55 147.036 238.159 147.358C237.769 147.681 237.573 148.091 237.573 148.589C237.573 149.058 237.793 149.438 238.232 149.731C238.682 150.015 239.434 150.264 240.488 150.479C241.543 150.684 242.432 150.918 243.154 151.182C245.391 152.002 246.509 153.423 246.509 155.444C246.509 156.89 245.889 158.062 244.648 158.96C243.408 159.849 241.807 160.293 239.844 160.293C238.516 160.293 237.334 160.059 236.299 159.59C235.273 159.111 234.468 158.462 233.882 157.642C233.296 156.812 233.003 155.918 233.003 154.961H237.017C237.056 155.713 237.334 156.289 237.852 156.689C238.369 157.09 239.062 157.29 239.932 157.29C240.742 157.29 241.353 157.139 241.763 156.836C242.183 156.523 242.393 156.118 242.393 155.62ZM257.832 155.62C257.832 155.103 257.573 154.697 257.056 154.404C256.548 154.102 255.728 153.833 254.595 153.599C250.825 152.808 248.94 151.206 248.94 148.794C248.94 147.388 249.521 146.216 250.684 145.278C251.855 144.331 253.384 143.857 255.269 143.857C257.28 143.857 258.887 144.331 260.088 145.278C261.299 146.226 261.904 147.456 261.904 148.97H257.671C257.671 148.364 257.476 147.866 257.085 147.476C256.694 147.075 256.084 146.875 255.254 146.875C254.541 146.875 253.989 147.036 253.599 147.358C253.208 147.681 253.013 148.091 253.013 148.589C253.013 149.058 253.232 149.438 253.672 149.731C254.121 150.015 254.873 150.264 255.928 150.479C256.982 150.684 257.871 150.918 258.594 151.182C260.83 152.002 261.948 153.423 261.948 155.444C261.948 156.89 261.328 158.062 260.088 158.96C258.848 159.849 257.246 160.293 255.283 160.293C253.955 160.293 252.773 160.059 251.738 159.59C250.713 159.111 249.907 158.462 249.321 157.642C248.735 156.812 248.442 155.918 248.442 154.961H252.456C252.495 155.713 252.773 156.289 253.291 156.689C253.809 157.09 254.502 157.29 255.371 157.29C256.182 157.29 256.792 157.139 257.202 156.836C257.622 156.523 257.832 156.118 257.832 155.62Z" fill="black"/>
</svg>
