<svg width="339" height="168" viewBox="0 0 339 168" fill="none" xmlns="http://www.w3.org/2000/svg">
<rect x="134" width="70" height="70" rx="35" fill="#21F7EC"/>
<path d="M118.8 117.848L121.671 102.672H126.051L121.319 124H116.896L113.424 109.732L109.952 124H105.528L100.797 102.672H105.177L108.062 117.818L111.578 102.672H115.299L118.8 117.848ZM136.744 112.12C136.168 112.042 135.66 112.003 135.221 112.003C133.619 112.003 132.569 112.545 132.071 113.629V124H127.838V108.15H131.837L131.954 110.04C132.804 108.585 133.98 107.857 135.484 107.857C135.953 107.857 136.393 107.921 136.803 108.048L136.744 112.12ZM143.263 124H139.015V108.15H143.263V124ZM138.766 104.049C138.766 103.414 138.976 102.892 139.396 102.481C139.825 102.071 140.406 101.866 141.139 101.866C141.861 101.866 142.438 102.071 142.867 102.481C143.297 102.892 143.512 103.414 143.512 104.049C143.512 104.693 143.292 105.221 142.853 105.631C142.423 106.041 141.852 106.246 141.139 106.246C140.426 106.246 139.85 106.041 139.41 105.631C138.98 105.221 138.766 104.693 138.766 104.049ZM151.832 104.254V108.15H154.542V111.256H151.832V119.166C151.832 119.752 151.944 120.172 152.169 120.426C152.394 120.68 152.823 120.807 153.458 120.807C153.927 120.807 154.342 120.772 154.703 120.704V123.912C153.873 124.166 153.019 124.293 152.14 124.293C149.171 124.293 147.657 122.794 147.599 119.796V111.256H145.284V108.15H147.599V104.254H151.832ZM161.969 104.254V108.15H164.679V111.256H161.969V119.166C161.969 119.752 162.081 120.172 162.306 120.426C162.53 120.68 162.96 120.807 163.595 120.807C164.063 120.807 164.479 120.772 164.84 120.704V123.912C164.01 124.166 163.155 124.293 162.276 124.293C159.308 124.293 157.794 122.794 157.735 119.796V111.256H155.421V108.15H157.735V104.254H161.969ZM174.332 124.293C172.008 124.293 170.113 123.58 168.648 122.154C167.193 120.729 166.466 118.829 166.466 116.456V116.046C166.466 114.454 166.773 113.033 167.389 111.783C168.004 110.523 168.873 109.557 169.996 108.883C171.129 108.199 172.418 107.857 173.863 107.857C176.031 107.857 177.735 108.541 178.976 109.908C180.226 111.275 180.851 113.214 180.851 115.724V117.452H170.758C170.895 118.487 171.305 119.317 171.988 119.942C172.682 120.567 173.556 120.88 174.61 120.88C176.241 120.88 177.516 120.289 178.434 119.107L180.514 121.437C179.879 122.335 179.02 123.038 177.936 123.546C176.852 124.044 175.65 124.293 174.332 124.293ZM173.849 111.285C173.009 111.285 172.325 111.568 171.798 112.135C171.28 112.701 170.948 113.512 170.802 114.566H176.69V114.229C176.671 113.292 176.417 112.569 175.929 112.062C175.44 111.544 174.747 111.285 173.849 111.285ZM187.164 108.15L187.296 109.981C188.429 108.565 189.947 107.857 191.852 107.857C193.531 107.857 194.781 108.351 195.602 109.337C196.422 110.323 196.842 111.798 196.861 113.761V124H192.628V113.863C192.628 112.965 192.433 112.315 192.042 111.915C191.651 111.505 191.002 111.3 190.094 111.3C188.902 111.3 188.009 111.808 187.413 112.823V124H183.18V108.15H187.164ZM221.837 116.222C221.837 118.761 221.295 120.743 220.211 122.169C219.127 123.585 217.613 124.293 215.67 124.293C213.951 124.293 212.579 123.634 211.554 122.315L211.363 124H207.555V101.5H211.788V109.571C212.765 108.429 214.049 107.857 215.641 107.857C217.574 107.857 219.088 108.57 220.182 109.996C221.285 111.412 221.837 113.409 221.837 115.987V116.222ZM217.604 115.914C217.604 114.312 217.35 113.146 216.842 112.413C216.334 111.671 215.577 111.3 214.571 111.3C213.224 111.3 212.296 111.852 211.788 112.955V119.21C212.306 120.323 213.243 120.88 214.601 120.88C215.968 120.88 216.866 120.206 217.296 118.858C217.501 118.214 217.604 117.232 217.604 115.914ZM230.201 118.009L233.131 108.15H237.672L231.3 126.461L230.948 127.296C230.001 129.366 228.438 130.401 226.261 130.401C225.646 130.401 225.021 130.309 224.386 130.123V126.915L225.03 126.93C225.831 126.93 226.427 126.808 226.817 126.563C227.218 126.319 227.53 125.914 227.755 125.348L228.253 124.044L222.701 108.15H227.257L230.201 118.009Z" fill="black"/>
<path d="M135.56 160H131.312V137.5H135.56V160ZM138.401 151.929C138.401 150.356 138.704 148.955 139.31 147.725C139.915 146.494 140.784 145.542 141.917 144.868C143.06 144.194 144.383 143.857 145.887 143.857C148.025 143.857 149.769 144.512 151.116 145.82C152.474 147.129 153.23 148.906 153.387 151.152L153.416 152.236C153.416 154.668 152.737 156.621 151.38 158.096C150.022 159.561 148.201 160.293 145.916 160.293C143.631 160.293 141.805 159.561 140.438 158.096C139.08 156.631 138.401 154.639 138.401 152.119V151.929ZM142.635 152.236C142.635 153.74 142.918 154.893 143.484 155.693C144.051 156.484 144.861 156.88 145.916 156.88C146.941 156.88 147.742 156.489 148.318 155.708C148.895 154.917 149.183 153.657 149.183 151.929C149.183 150.454 148.895 149.312 148.318 148.501C147.742 147.69 146.932 147.285 145.887 147.285C144.852 147.285 144.051 147.69 143.484 148.501C142.918 149.302 142.635 150.547 142.635 152.236ZM162.615 156.88C163.396 156.88 164.031 156.665 164.52 156.235C165.008 155.806 165.262 155.234 165.281 154.521H169.251C169.241 155.596 168.948 156.582 168.372 157.48C167.796 158.369 167.005 159.062 165.999 159.561C165.003 160.049 163.899 160.293 162.688 160.293C160.423 160.293 158.636 159.575 157.327 158.14C156.019 156.694 155.364 154.702 155.364 152.163V151.885C155.364 149.443 156.014 147.495 157.312 146.04C158.611 144.585 160.394 143.857 162.659 143.857C164.642 143.857 166.229 144.424 167.42 145.557C168.621 146.68 169.231 148.179 169.251 150.054H165.281C165.262 149.233 165.008 148.569 164.52 148.062C164.031 147.544 163.387 147.285 162.586 147.285C161.6 147.285 160.853 147.646 160.345 148.369C159.847 149.082 159.598 150.244 159.598 151.855V152.295C159.598 153.926 159.847 155.098 160.345 155.811C160.843 156.523 161.6 156.88 162.615 156.88ZM180.853 160C180.657 159.619 180.516 159.146 180.428 158.579C179.402 159.722 178.069 160.293 176.429 160.293C174.876 160.293 173.587 159.844 172.562 158.945C171.546 158.047 171.038 156.914 171.038 155.547C171.038 153.867 171.658 152.578 172.898 151.68C174.148 150.781 175.95 150.327 178.304 150.317H180.252V149.409C180.252 148.677 180.062 148.091 179.681 147.651C179.31 147.212 178.719 146.992 177.908 146.992C177.195 146.992 176.634 147.163 176.224 147.505C175.823 147.847 175.623 148.315 175.623 148.911H171.39C171.39 147.993 171.673 147.144 172.239 146.362C172.806 145.581 173.606 144.971 174.642 144.531C175.677 144.082 176.839 143.857 178.128 143.857C180.081 143.857 181.629 144.351 182.771 145.337C183.924 146.313 184.5 147.69 184.5 149.468V156.338C184.51 157.842 184.72 158.979 185.13 159.751V160H180.853ZM177.352 157.056C177.977 157.056 178.553 156.919 179.08 156.646C179.607 156.362 179.998 155.986 180.252 155.518V152.793H178.67C176.551 152.793 175.423 153.525 175.286 154.99L175.271 155.239C175.271 155.767 175.457 156.201 175.828 156.543C176.199 156.885 176.707 157.056 177.352 157.056ZM192.22 160H187.972V137.5H192.22V160ZM204.305 155.62C204.305 155.103 204.046 154.697 203.528 154.404C203.021 154.102 202.2 153.833 201.067 153.599C197.298 152.808 195.413 151.206 195.413 148.794C195.413 147.388 195.994 146.216 197.156 145.278C198.328 144.331 199.856 143.857 201.741 143.857C203.753 143.857 205.359 144.331 206.561 145.278C207.771 146.226 208.377 147.456 208.377 148.97H204.144C204.144 148.364 203.948 147.866 203.558 147.476C203.167 147.075 202.557 146.875 201.727 146.875C201.014 146.875 200.462 147.036 200.071 147.358C199.681 147.681 199.485 148.091 199.485 148.589C199.485 149.058 199.705 149.438 200.145 149.731C200.594 150.015 201.346 150.264 202.4 150.479C203.455 150.684 204.344 150.918 205.066 151.182C207.303 152.002 208.421 153.423 208.421 155.444C208.421 156.89 207.801 158.062 206.561 158.96C205.32 159.849 203.719 160.293 201.756 160.293C200.428 160.293 199.246 160.059 198.211 159.59C197.186 159.111 196.38 158.462 195.794 157.642C195.208 156.812 194.915 155.918 194.915 154.961H198.929C198.968 155.713 199.246 156.289 199.764 156.689C200.281 157.09 200.975 157.29 201.844 157.29C202.654 157.29 203.265 157.139 203.675 156.836C204.095 156.523 204.305 156.118 204.305 155.62Z" fill="black"/>
</svg>
