<svg width="340" height="168" viewBox="0 0 340 168" fill="none" xmlns="http://www.w3.org/2000/svg">
<rect x="135" width="70" height="70" rx="35" fill="#33D3BC"/>
<path d="M94.1943 116.485V124H89.7998V102.672H98.1201C99.7217 102.672 101.128 102.965 102.339 103.551C103.56 104.137 104.497 104.972 105.151 106.056C105.806 107.13 106.133 108.355 106.133 109.732C106.133 111.822 105.415 113.473 103.979 114.684C102.554 115.885 100.576 116.485 98.0469 116.485H94.1943ZM94.1943 112.926H98.1201C99.2822 112.926 100.166 112.652 100.771 112.105C101.387 111.559 101.694 110.777 101.694 109.762C101.694 108.717 101.387 107.872 100.771 107.228C100.156 106.583 99.3066 106.251 98.2227 106.231H94.1943V112.926ZM117.896 124C117.7 123.619 117.559 123.146 117.471 122.579C116.445 123.722 115.112 124.293 113.472 124.293C111.919 124.293 110.63 123.844 109.604 122.945C108.589 122.047 108.081 120.914 108.081 119.547C108.081 117.867 108.701 116.578 109.941 115.68C111.191 114.781 112.993 114.327 115.347 114.317H117.295V113.409C117.295 112.677 117.104 112.091 116.724 111.651C116.353 111.212 115.762 110.992 114.951 110.992C114.238 110.992 113.677 111.163 113.267 111.505C112.866 111.847 112.666 112.315 112.666 112.911H108.433C108.433 111.993 108.716 111.144 109.282 110.362C109.849 109.581 110.649 108.971 111.685 108.531C112.72 108.082 113.882 107.857 115.171 107.857C117.124 107.857 118.672 108.351 119.814 109.337C120.967 110.313 121.543 111.69 121.543 113.468V120.338C121.553 121.842 121.763 122.979 122.173 123.751V124H117.896ZM114.395 121.056C115.02 121.056 115.596 120.919 116.123 120.646C116.65 120.362 117.041 119.986 117.295 119.518V116.793H115.713C113.594 116.793 112.466 117.525 112.329 118.99L112.314 119.239C112.314 119.767 112.5 120.201 112.871 120.543C113.242 120.885 113.75 121.056 114.395 121.056ZM131.387 120.88C132.168 120.88 132.803 120.665 133.291 120.235C133.779 119.806 134.033 119.234 134.053 118.521H138.022C138.013 119.596 137.72 120.582 137.144 121.48C136.567 122.369 135.776 123.062 134.771 123.561C133.774 124.049 132.671 124.293 131.46 124.293C129.194 124.293 127.407 123.575 126.099 122.14C124.79 120.694 124.136 118.702 124.136 116.163V115.885C124.136 113.443 124.785 111.495 126.084 110.04C127.383 108.585 129.165 107.857 131.431 107.857C133.413 107.857 135 108.424 136.191 109.557C137.393 110.68 138.003 112.179 138.022 114.054H134.053C134.033 113.233 133.779 112.569 133.291 112.062C132.803 111.544 132.158 111.285 131.357 111.285C130.371 111.285 129.624 111.646 129.116 112.369C128.618 113.082 128.369 114.244 128.369 115.855V116.295C128.369 117.926 128.618 119.098 129.116 119.811C129.614 120.523 130.371 120.88 131.387 120.88ZM146.196 117.643L144.673 119.166V124H140.439V101.5H144.673V113.966L145.493 112.911L149.551 108.15H154.634L148.906 114.757L155.132 124H150.269L146.196 117.643ZM163.467 124.293C161.143 124.293 159.248 123.58 157.783 122.154C156.328 120.729 155.601 118.829 155.601 116.456V116.046C155.601 114.454 155.908 113.033 156.523 111.783C157.139 110.523 158.008 109.557 159.131 108.883C160.264 108.199 161.553 107.857 162.998 107.857C165.166 107.857 166.87 108.541 168.11 109.908C169.36 111.275 169.985 113.214 169.985 115.724V117.452H159.893C160.029 118.487 160.439 119.317 161.123 119.942C161.816 120.567 162.69 120.88 163.745 120.88C165.376 120.88 166.65 120.289 167.568 119.107L169.648 121.437C169.014 122.335 168.154 123.038 167.07 123.546C165.986 124.044 164.785 124.293 163.467 124.293ZM162.983 111.285C162.144 111.285 161.46 111.568 160.933 112.135C160.415 112.701 160.083 113.512 159.937 114.566H165.825V114.229C165.806 113.292 165.552 112.569 165.063 112.062C164.575 111.544 163.882 111.285 162.983 111.285ZM171.743 115.958C171.743 113.487 172.295 111.52 173.398 110.055C174.512 108.59 176.03 107.857 177.954 107.857C179.497 107.857 180.771 108.434 181.777 109.586V101.5H186.025V124H182.202L181.997 122.315C180.942 123.634 179.585 124.293 177.925 124.293C176.06 124.293 174.561 123.561 173.428 122.096C172.305 120.621 171.743 118.575 171.743 115.958ZM175.977 116.266C175.977 117.75 176.235 118.888 176.753 119.679C177.271 120.47 178.022 120.865 179.009 120.865C180.317 120.865 181.24 120.313 181.777 119.21V112.955C181.25 111.852 180.337 111.3 179.038 111.3C176.997 111.3 175.977 112.955 175.977 116.266ZM210.562 118.243L212.642 108.15H216.729L212.686 124H209.141L206.138 114.024L203.135 124H199.604L195.562 108.15H199.648L201.714 118.229L204.614 108.15H207.676L210.562 118.243ZM223.306 124H219.058V108.15H223.306V124ZM218.809 104.049C218.809 103.414 219.019 102.892 219.438 102.481C219.868 102.071 220.449 101.866 221.182 101.866C221.904 101.866 222.48 102.071 222.91 102.481C223.34 102.892 223.555 103.414 223.555 104.049C223.555 104.693 223.335 105.221 222.896 105.631C222.466 106.041 221.895 106.246 221.182 106.246C220.469 106.246 219.893 106.041 219.453 105.631C219.023 105.221 218.809 104.693 218.809 104.049ZM231.875 104.254V108.15H234.585V111.256H231.875V119.166C231.875 119.752 231.987 120.172 232.212 120.426C232.437 120.68 232.866 120.807 233.501 120.807C233.97 120.807 234.385 120.772 234.746 120.704V123.912C233.916 124.166 233.062 124.293 232.183 124.293C229.214 124.293 227.7 122.794 227.642 119.796V111.256H225.327V108.15H227.642V104.254H231.875ZM241.074 109.879C242.197 108.531 243.608 107.857 245.308 107.857C248.745 107.857 250.488 109.854 250.537 113.849V124H246.304V113.966C246.304 113.058 246.108 112.389 245.718 111.959C245.327 111.52 244.678 111.3 243.77 111.3C242.529 111.3 241.631 111.778 241.074 112.735V124H236.841V101.5H241.074V109.879Z" fill="black"/>
<path d="M129.466 160H125.218V144.15H129.466V160ZM124.969 140.049C124.969 139.414 125.179 138.892 125.599 138.481C126.028 138.071 126.609 137.866 127.342 137.866C128.064 137.866 128.641 138.071 129.07 138.481C129.5 138.892 129.715 139.414 129.715 140.049C129.715 140.693 129.495 141.221 129.056 141.631C128.626 142.041 128.055 142.246 127.342 142.246C126.629 142.246 126.053 142.041 125.613 141.631C125.184 141.221 124.969 140.693 124.969 140.049ZM136.863 144.15L136.995 145.981C138.128 144.565 139.646 143.857 141.551 143.857C143.23 143.857 144.48 144.351 145.301 145.337C146.121 146.323 146.541 147.798 146.561 149.761V160H142.327V149.863C142.327 148.965 142.132 148.315 141.741 147.915C141.351 147.505 140.701 147.3 139.793 147.3C138.602 147.3 137.708 147.808 137.112 148.823V160H132.879V144.15H136.863ZM158.367 155.62C158.367 155.103 158.108 154.697 157.591 154.404C157.083 154.102 156.263 153.833 155.13 153.599C151.36 152.808 149.476 151.206 149.476 148.794C149.476 147.388 150.057 146.216 151.219 145.278C152.391 144.331 153.919 143.857 155.804 143.857C157.815 143.857 159.422 144.331 160.623 145.278C161.834 146.226 162.439 147.456 162.439 148.97H158.206C158.206 148.364 158.011 147.866 157.62 147.476C157.229 147.075 156.619 146.875 155.789 146.875C155.076 146.875 154.524 147.036 154.134 147.358C153.743 147.681 153.548 148.091 153.548 148.589C153.548 149.058 153.768 149.438 154.207 149.731C154.656 150.015 155.408 150.264 156.463 150.479C157.518 150.684 158.406 150.918 159.129 151.182C161.365 152.002 162.483 153.423 162.483 155.444C162.483 156.89 161.863 158.062 160.623 158.96C159.383 159.849 157.781 160.293 155.818 160.293C154.49 160.293 153.309 160.059 152.273 159.59C151.248 159.111 150.442 158.462 149.856 157.642C149.271 156.812 148.978 155.918 148.978 154.961H152.991C153.03 155.713 153.309 156.289 153.826 156.689C154.344 157.09 155.037 157.29 155.906 157.29C156.717 157.29 157.327 157.139 157.737 156.836C158.157 156.523 158.367 156.118 158.367 155.62ZM169.69 160H165.442V144.15H169.69V160ZM165.193 140.049C165.193 139.414 165.403 138.892 165.823 138.481C166.253 138.071 166.834 137.866 167.566 137.866C168.289 137.866 168.865 138.071 169.295 138.481C169.725 138.892 169.939 139.414 169.939 140.049C169.939 140.693 169.72 141.221 169.28 141.631C168.851 142.041 168.279 142.246 167.566 142.246C166.854 142.246 166.277 142.041 165.838 141.631C165.408 141.221 165.193 140.693 165.193 140.049ZM172.576 151.958C172.576 149.526 173.152 147.568 174.305 146.084C175.467 144.6 177.029 143.857 178.992 143.857C180.73 143.857 182.083 144.453 183.05 145.645L183.226 144.15H187.063V159.473C187.063 160.859 186.746 162.065 186.111 163.091C185.486 164.116 184.603 164.897 183.46 165.435C182.317 165.972 180.979 166.24 179.446 166.24C178.284 166.24 177.151 166.006 176.048 165.537C174.944 165.078 174.109 164.482 173.543 163.75L175.418 161.172C176.473 162.354 177.752 162.944 179.256 162.944C180.379 162.944 181.253 162.642 181.878 162.036C182.503 161.44 182.815 160.591 182.815 159.487V158.638C181.839 159.741 180.555 160.293 178.963 160.293C177.059 160.293 175.516 159.551 174.334 158.066C173.162 156.572 172.576 154.595 172.576 152.134V151.958ZM176.81 152.266C176.81 153.701 177.098 154.829 177.674 155.649C178.25 156.46 179.041 156.865 180.047 156.865C181.336 156.865 182.259 156.382 182.815 155.415V148.75C182.249 147.783 181.336 147.3 180.076 147.3C179.061 147.3 178.26 147.715 177.674 148.545C177.098 149.375 176.81 150.615 176.81 152.266ZM194.461 145.879C195.584 144.531 196.995 143.857 198.694 143.857C202.132 143.857 203.875 145.854 203.924 149.849V160H199.69V149.966C199.69 149.058 199.495 148.389 199.104 147.959C198.714 147.52 198.064 147.3 197.156 147.3C195.916 147.3 195.018 147.778 194.461 148.735V160H190.228V137.5H194.461V145.879ZM212.186 140.254V144.15H214.896V147.256H212.186V155.166C212.186 155.752 212.298 156.172 212.522 156.426C212.747 156.68 213.177 156.807 213.812 156.807C214.28 156.807 214.695 156.772 215.057 156.704V159.912C214.227 160.166 213.372 160.293 212.493 160.293C209.524 160.293 208.011 158.794 207.952 155.796V147.256H205.638V144.15H207.952V140.254H212.186Z" fill="black"/>
</svg>
